<svg width="372" height="123" viewBox="0 0 372 123" fill="none" xmlns="http://www.w3.org/2000/svg">
<g opacity="0.3">
<mask id="mask0_219_5696" style="mask-type:alpha" maskUnits="userSpaceOnUse" x="239" y="15" width="109" height="109">
<path d="M301.643 47.869C301.537 47.3367 300.394 46.5864 302.088 46.2471" stroke="#258177" stroke-width="1.31685" stroke-miterlimit="1.5" stroke-linecap="round" stroke-linejoin="round"/>
<path d="M307.1 47.8688C307.542 48.7529 308.775 47.1091 308.868 46.9846" stroke="#258177" stroke-width="1.31685" stroke-miterlimit="1.5" stroke-linecap="round" stroke-linejoin="round"/>
<path fill-rule="evenodd" clip-rule="evenodd" d="M276.861 120.795C271.936 118.665 268.044 118.034 262.139 113.554C258.375 110.693 253.238 104.877 251.339 100.205C248.989 94.4267 246.327 87.8238 252.905 69.6183C254.589 64.9548 264.411 42.9451 271.799 35.3989C291.33 15.4531 304.337 19.5687 311.292 20.5773C316.509 21.3338 322.935 25.4058 325.687 28.7711C331.474 35.8441 334.693 37.7182 335.888 65.3876C336.542 80.5111 336.197 98.838 327.175 110.73C325.4 113.068 320.793 123.363 296.355 122.432C293.911 122.339 280.792 122.495 276.861 120.795Z" stroke="#258177" stroke-width="1.31685" stroke-miterlimit="1.5" stroke-linecap="round" stroke-linejoin="round"/>
<path fill-rule="evenodd" clip-rule="evenodd" d="M287.951 49.0778C287.671 47.0443 283.654 45.1951 284.154 37.1173C284.972 23.9227 299.124 26.5216 300.811 29.3044C301.055 29.7045 303.89 33.6756 306.582 33.175C311.633 32.2366 315.707 27.6732 320.57 31.8577C321.242 32.4346 325.861 35.5547 326.759 41.2443C327.839 48.0639 320.07 49.0612 319.777 53.8407C319.567 57.2282 321.588 66.582 312.613 69.656C306.773 71.6573 284.333 69.5608 285.115 59.754C285.475 55.2499 287.058 55.8307 287.95 51.3613C288.153 50.3474 287.906 49.2327 287.951 49.0778Z" stroke="#258177" stroke-width="1.31358" stroke-miterlimit="1.5" stroke-linecap="round" stroke-linejoin="round"/>
<path d="M289.527 56.2473C290.352 55.0083 294.362 52.8914 295.981 56.129C296.301 56.7703 298.303 59.4009 300.598 57.1066C304.477 53.2276 305.476 57.7291 305.566 58.1245C305.75 58.9588 306.951 59.9332 307.443 59.5721C307.546 59.4943 308.723 58.1121 310.298 57.8506C312.238 57.5268 311.559 59.8585 314.171 59.7278C315.861 59.6437 315.609 59.0491 317.144 58.2802" stroke="#258177" stroke-width="1.31685" stroke-miterlimit="1.5" stroke-linecap="round" stroke-linejoin="round"/>
<path d="M334.2 43.7803C335.713 40.1448 347.221 39.4899 346.735 49.2482C346.123 61.585 338.011 63.1761 336.298 65.0624" stroke="#258177" stroke-width="1.31685" stroke-miterlimit="1.5" stroke-linecap="round" stroke-linejoin="round"/>
<path d="M273.698 33.7232C273.358 32.1851 272.94 30.8063 269.302 28.7854C266.744 27.3644 259.773 29.4447 258.936 36.6544C257.791 46.4641 261.353 49.1046 262.219 49.75" stroke="#258177" stroke-width="1.31685" stroke-miterlimit="1.5" stroke-linecap="round" stroke-linejoin="round"/>
<path d="M250.583 77.4409C248.666 77.6893 236.563 66.8239 243.726 60.079C256.167 48.3634 249.189 43.2056 246.312 39.3459C245.742 38.5822 240.573 32.0112 239.922 26.7082C238.756 17.2402 253.394 12.5904 262.084 20.167C263.759 21.6262 264.78 25.3384 260.567 24.8175C260.159 24.7669 252.757 20.4328 249.298 20.9686C244 21.7895 245.197 27.0479 245.339 27.6521C246.967 34.4451 250.088 35.1136 252.709 39.5506C259.208 50.5478 251.123 59.3709 249.828 60.3907C248.5 61.4329 247.082 64.9596 249.701 68.5452C250.572 69.7412 250.895 70.3838 252.423 70.9489" stroke="#258177" stroke-width="1.31685" stroke-miterlimit="1.5" stroke-linecap="round" stroke-linejoin="round"/>
<path d="M295.956 35.1118C295.974 35.1126 295.993 35.1144 296.011 35.1167H296.018C296.021 35.1171 296.025 35.1181 296.029 35.1187C296.038 35.12 296.05 35.1222 296.065 35.1245C296.095 35.1292 296.136 35.1363 296.186 35.146C296.287 35.1654 296.427 35.1956 296.594 35.2417C296.926 35.3333 297.375 35.4895 297.835 35.7485C298.765 36.272 299.779 37.2466 299.874 38.9419V38.9429C299.922 39.8122 299.787 40.5263 299.508 41.1069C299.229 41.6893 298.824 42.1012 298.394 42.3931C297.586 42.9415 296.578 43.1005 296.335 43.1724C295.922 43.2954 294.27 43.652 292.53 42.4702C291.196 41.5644 290.807 39.6288 291.308 38.0513C291.568 37.2344 292.076 36.4619 292.865 35.9107C293.657 35.3575 294.691 35.0559 295.956 35.1118ZM294.343 36.4898C293.656 36.4899 293.098 37.0474 293.098 37.7349C293.098 38.4225 293.656 38.9808 294.343 38.981C295.031 38.981 295.588 38.4226 295.588 37.7349C295.588 37.0473 295.031 36.4898 294.343 36.4898Z" fill="#258177"/>
<path d="M314.337 37.3188C316.083 37.1724 318.037 37.9743 318.614 40.0688V40.0698C319.108 41.8707 318.797 43.3776 317.768 44.3286C316.764 45.2553 315.247 45.4917 313.667 45.1577C313.395 45.1002 312.378 44.9849 311.568 44.3647C311.142 44.0384 310.768 43.5753 310.552 42.9301C310.339 42.2924 310.291 41.5143 310.45 40.5688L310.486 40.3833C310.901 38.4953 312.662 37.4596 314.337 37.3188ZM313.338 38.9799C312.651 38.9799 312.093 39.5383 312.093 40.226C312.093 40.9136 312.651 41.4711 313.338 41.4711C314.026 41.4711 314.583 40.9135 314.583 40.226C314.583 39.5384 314.026 38.98 313.338 38.9799Z" fill="#258177"/>
</mask>
<g mask="url(#mask0_219_5696)">
<path d="M221.5 -10.5083H364L363.5 88.4917L221.5 85.9917V-10.5083Z" fill="#258177"/>
</g>
</g>
<path d="M13.0068 11.4919C24.8761 10.322 36.7454 9.15217 90.2928 8.51859C143.84 7.885 238.706 7.82313 291.934 8.38181C345.161 8.94049 353.875 10.1216 358.642 10.9831C363.408 11.8447 363.962 12.3509 365.357 20.2824C366.752 28.2139 368.97 43.5554 370.113 55.7174C371.255 67.8794 371.255 76.397 370.336 81.2067C369.417 86.0164 367.578 86.86 365.194 87.4634C362.809 88.0667 359.935 88.4042 301.959 87.1241C243.983 85.8441 130.992 82.9363 71.8642 81.0623C12.7368 79.1884 10.8973 78.4363 9.54969 77.7982C7.35673 76.7598 5.85841 75.1395 4.60779 73.1606C3.50507 71.4157 3.34747 68.9813 3.06632 65.9946C2.72782 62.3986 1.73572 53.3401 1.12744 39.9881C0.607296 28.5705 1.79846 22.2174 2.55585 20.2803C4.04415 16.4738 7.87199 15.3755 13.7403 14.2348C18.2305 13.3619 21.4738 13.3447 32.4662 12.0027C37.4186 11.3291 44.5484 10.3264 53.2122 9.76807C61.876 9.20973 71.8577 9.12617 82.1419 9.04008" stroke="#258177" stroke-width="2" stroke-linecap="round" stroke-linejoin="round"/>
<rect x="17.5" y="0.5" width="69" height="17" rx="7.5" fill="white"/>
<rect x="17.5" y="0.5" width="69" height="17" rx="7.5" stroke="#258177"/>
<path d="M23.476 14C23.108 14 22.924 13.808 22.924 13.424V6.176C22.924 5.96 22.976 5.812 23.08 5.732C23.192 5.644 23.356 5.6 23.572 5.6C23.868 5.6 24.092 5.728 24.244 5.984L26.632 9.764L28.996 5.996C29.084 5.836 29.188 5.732 29.308 5.684C29.436 5.628 29.592 5.6 29.776 5.6C30.16 5.6 30.352 5.792 30.352 6.176V13.424C30.352 13.808 30.164 14 29.788 14C29.412 14 29.224 13.808 29.224 13.424V7.508L27.172 10.82C27.036 11.076 26.856 11.204 26.632 11.204C26.416 11.204 26.232 11.076 26.08 10.82L24.028 7.508V13.424C24.028 13.808 23.844 14 23.476 14ZM32.7335 14C32.3735 14 32.1935 13.808 32.1935 13.424V6.176C32.1935 5.792 32.3735 5.6 32.7335 5.6C33.1015 5.6 33.2855 5.792 33.2855 6.176V13.424C33.2855 13.808 33.1015 14 32.7335 14ZM38.0389 14.156C37.4549 14.156 36.9109 14.06 36.4069 13.868C35.9109 13.676 35.4829 13.364 35.1229 12.932C35.0109 12.78 34.9669 12.64 34.9909 12.512C35.0229 12.376 35.1149 12.264 35.2669 12.176C35.4109 12.088 35.5429 12.06 35.6629 12.092C35.7909 12.116 35.9189 12.196 36.0469 12.332C36.2869 12.58 36.5749 12.772 36.9109 12.908C37.2469 13.036 37.6349 13.1 38.0749 13.1C38.6349 13.1 39.0709 12.988 39.3829 12.764C39.6949 12.54 39.8509 12.212 39.8509 11.78C39.8509 11.524 39.7949 11.304 39.6829 11.12C39.5709 10.928 39.3469 10.756 39.0109 10.604C38.6749 10.452 38.1669 10.308 37.4869 10.172C35.9429 9.836 35.1709 9.048 35.1709 7.808C35.1709 7.328 35.2869 6.908 35.5189 6.548C35.7509 6.188 36.0749 5.908 36.4909 5.708C36.9069 5.5 37.3909 5.396 37.9429 5.396C38.4869 5.396 38.9749 5.492 39.4069 5.684C39.8389 5.868 40.2189 6.112 40.5469 6.416C40.6669 6.544 40.7189 6.676 40.7029 6.812C40.6869 6.948 40.6109 7.072 40.4749 7.184C40.3309 7.296 40.1949 7.344 40.0669 7.328C39.9469 7.312 39.8189 7.24 39.6829 7.112C39.4429 6.912 39.1829 6.756 38.9029 6.644C38.6229 6.524 38.2989 6.464 37.9309 6.464C37.4669 6.464 37.0789 6.576 36.7669 6.8C36.4629 7.016 36.3109 7.336 36.3109 7.76C36.3109 7.984 36.3589 8.188 36.4549 8.372C36.5589 8.548 36.7469 8.704 37.0189 8.84C37.2909 8.976 37.6869 9.1 38.2069 9.212C39.1989 9.42 39.9109 9.732 40.3429 10.148C40.7829 10.564 41.0029 11.104 41.0029 11.768C41.0029 12.28 40.8749 12.716 40.6189 13.076C40.3709 13.428 40.0229 13.696 39.5749 13.88C39.1349 14.064 38.6229 14.156 38.0389 14.156ZM45.4452 14.156C44.8612 14.156 44.3172 14.06 43.8132 13.868C43.3172 13.676 42.8892 13.364 42.5292 12.932C42.4172 12.78 42.3732 12.64 42.3972 12.512C42.4292 12.376 42.5212 12.264 42.6732 12.176C42.8172 12.088 42.9492 12.06 43.0692 12.092C43.1972 12.116 43.3252 12.196 43.4532 12.332C43.6932 12.58 43.9812 12.772 44.3172 12.908C44.6532 13.036 45.0412 13.1 45.4812 13.1C46.0412 13.1 46.4772 12.988 46.7892 12.764C47.1012 12.54 47.2572 12.212 47.2572 11.78C47.2572 11.524 47.2012 11.304 47.0892 11.12C46.9772 10.928 46.7532 10.756 46.4172 10.604C46.0812 10.452 45.5732 10.308 44.8932 10.172C43.3492 9.836 42.5772 9.048 42.5772 7.808C42.5772 7.328 42.6932 6.908 42.9252 6.548C43.1572 6.188 43.4812 5.908 43.8972 5.708C44.3132 5.5 44.7972 5.396 45.3492 5.396C45.8932 5.396 46.3812 5.492 46.8132 5.684C47.2452 5.868 47.6252 6.112 47.9532 6.416C48.0732 6.544 48.1252 6.676 48.1092 6.812C48.0932 6.948 48.0172 7.072 47.8812 7.184C47.7372 7.296 47.6012 7.344 47.4732 7.328C47.3532 7.312 47.2252 7.24 47.0892 7.112C46.8492 6.912 46.5892 6.756 46.3092 6.644C46.0292 6.524 45.7052 6.464 45.3372 6.464C44.8732 6.464 44.4852 6.576 44.1732 6.8C43.8692 7.016 43.7172 7.336 43.7172 7.76C43.7172 7.984 43.7652 8.188 43.8612 8.372C43.9652 8.548 44.1532 8.704 44.4252 8.84C44.6972 8.976 45.0932 9.1 45.6132 9.212C46.6052 9.42 47.3172 9.732 47.7492 10.148C48.1892 10.564 48.4092 11.104 48.4092 11.768C48.4092 12.28 48.2812 12.716 48.0252 13.076C47.7772 13.428 47.4292 13.696 46.9812 13.88C46.5412 14.064 46.0292 14.156 45.4452 14.156ZM50.4874 14C50.1274 14 49.9474 13.808 49.9474 13.424V6.176C49.9474 5.792 50.1274 5.6 50.4874 5.6C50.8554 5.6 51.0394 5.792 51.0394 6.176V13.424C51.0394 13.808 50.8554 14 50.4874 14ZM56.3448 14.18C55.5848 14.18 54.9128 14 54.3288 13.64C53.7448 13.28 53.2848 12.772 52.9488 12.116C52.6208 11.46 52.4568 10.688 52.4568 9.8C52.4568 8.912 52.6208 8.14 52.9488 7.484C53.2848 6.82 53.7448 6.308 54.3288 5.948C54.9128 5.58 55.5848 5.396 56.3448 5.396C57.1048 5.396 57.7728 5.58 58.3488 5.948C58.9328 6.308 59.3888 6.82 59.7168 7.484C60.0528 8.14 60.2208 8.912 60.2208 9.8C60.2208 10.688 60.0528 11.46 59.7168 12.116C59.3888 12.772 58.9328 13.28 58.3488 13.64C57.7728 14 57.1048 14.18 56.3448 14.18ZM56.3448 13.1C56.8888 13.1 57.3648 12.964 57.7728 12.692C58.1888 12.42 58.5088 12.04 58.7328 11.552C58.9648 11.056 59.0808 10.472 59.0808 9.8C59.0808 9.12 58.9648 8.536 58.7328 8.048C58.5088 7.552 58.1888 7.168 57.7728 6.896C57.3648 6.624 56.8888 6.488 56.3448 6.488C55.8008 6.488 55.3208 6.624 54.9048 6.896C54.4968 7.168 54.1768 7.552 53.9448 8.048C53.7128 8.536 53.5968 9.12 53.5968 9.8C53.5968 10.472 53.7128 11.056 53.9448 11.552C54.1768 12.04 54.4968 12.42 54.9048 12.692C55.3208 12.964 55.8008 13.1 56.3448 13.1ZM62.1945 14C61.8345 14 61.6545 13.808 61.6545 13.424V6.176C61.6545 5.792 61.8345 5.6 62.1945 5.6H62.3145C62.6025 5.6 62.8305 5.724 62.9985 5.972L67.0545 12.068V6.176C67.0545 5.792 67.2425 5.6 67.6185 5.6C67.9785 5.6 68.1585 5.792 68.1585 6.176V13.424C68.1585 13.808 67.9825 14 67.6305 14H67.5465C67.2345 14 67.0065 13.876 66.8625 13.628L62.7465 7.412V13.424C62.7465 13.808 62.5625 14 62.1945 14ZM76.1902 14.048C75.8222 14.048 75.6382 13.856 75.6382 13.472V6.824L74.2582 7.544C73.9142 7.72 73.6622 7.648 73.5022 7.328C73.3262 7 73.4142 6.756 73.7662 6.596L75.5302 5.72C75.6582 5.656 75.7742 5.616 75.8782 5.6C75.9902 5.576 76.1102 5.564 76.2382 5.564C76.5662 5.564 76.7302 5.752 76.7302 6.128V13.472C76.7302 13.856 76.5502 14.048 76.1902 14.048Z" fill="#258177"/>
</svg>
